<svg width="15" height="15" viewBox="0 0 15 15" fill="none" xmlns="http://www.w3.org/2000/svg">
<path d="M13.98 13.343L10.48 9.843C11.3617 8.76317 11.7948 7.38588 11.6899 5.99577C11.585 4.60565 10.95 3.30898 9.91621 2.37374C8.88241 1.43849 7.52881 0.936168 6.13517 0.970576C4.74153 1.00498 3.41437 1.5735 2.42798 2.55862C1.44159 3.54374 0.871371 4.87016 0.835171 6.26376C0.79897 7.65736 1.29956 9.0116 2.23347 10.0466C3.16738 11.0816 4.46323 11.7183 5.85321 11.825C7.24319 11.9317 8.62104 11.5003 9.702 10.62L13.202 14.12C13.2531 14.1711 13.3137 14.2116 13.3805 14.2393C13.4472 14.2669 13.5188 14.2811 13.591 14.2811C13.6632 14.2811 13.7348 14.2669 13.8015 14.2393C13.8683 14.2116 13.9289 14.1711 13.98 14.12C14.0311 14.0689 14.0716 14.0083 14.0993 13.9415C14.1269 13.8748 14.1411 13.8032 14.1411 13.731C14.1411 13.6588 14.1269 13.5872 14.0993 13.5205C14.0716 13.4537 14.0311 13.3931 13.98 13.342V13.343ZM1.959 6.418C1.9592 5.56383 2.21267 4.72889 2.68737 4.01877C3.16207 3.30864 3.83667 2.75522 4.62588 2.42848C5.4151 2.10174 6.28347 2.01635 7.12121 2.18311C7.95895 2.34987 8.72843 2.7613 9.33235 3.36536C9.93627 3.96942 10.3475 4.739 10.5141 5.57677C10.6807 6.41455 10.5951 7.28291 10.2681 8.07204C9.94122 8.86118 9.38764 9.53565 8.6774 10.0102C7.96717 10.4847 7.13218 10.738 6.278 10.738C5.13268 10.7369 4.03459 10.2814 3.22482 9.47147C2.41506 8.66151 1.9598 7.56332 1.959 6.418V6.418Z" fill="white"/>
</svg>
